<svg width="744.09448819" xmlns="http://www.w3.org/2000/svg" height="1052.3622047">
<defs>
<filter width="200%" x="-372.0472" y="-526.1811" height="200%" id="svg_13_blur">
<feGaussianBlur stdDeviation="10"/>
</filter>
<linearGradient gradientTransform="matrix(1,-1.009596e-6,2.721697e-6,1,1.480829e-6,-1.11922e-7)" spreadMethod="reflect" xlink:href="#svg_64" id="svg_50" y1="0.537685" y2="0.546188" x1="-5.11528" x2="-4.684101" gradientUnits="objectBoundingBox"/>
<linearGradient xlink:href="#svg_63" id="svg_41" y1="0.031251" y2="1.085938" x1="-0.097746" x2="1.105263"/>
<linearGradient gradientTransform="matrix(1,1.036219e-7,1.616188e-5,1,3.828568e-7,-8.699634e-8)" xlink:href="#svg_62" id="svg_46" y1="0.62424" y2="2.199737" x1="0.609051" x2="1.001246"/>
<linearGradient xlink:href="#svg_65" id="svg_59" y1="0.015623" y2="0.945313" x1="-0.13821" x2="0.943089"/>
<linearGradient id="svg_63">
<stop offset="0" style="stop-color:#fff" id="svg_70"/>
<stop offset="1" style="stop-color:#fff;stop-opacity:0" id="svg_69"/>
</linearGradient>
<linearGradient gradientTransform="scale(0.654473,1.527946)" xlink:href="#svg_62" id="svg_44" y1="0.454816" y2="0.606424" x1="0.003122" x2="1.435131"/>
<linearGradient id="svg_62">
<stop offset="0" style="stop-color:#dedd07" id="svg_82"/>
<stop offset="1" style="stop-color:#4ddd00" id="svg_81"/>
</linearGradient>
<linearGradient id="svg_65">
<stop offset="0" style="stop-color:#f00" id="svg_72"/>
<stop offset="1" style="stop-color:#9d0000;stop-opacity:.929" id="svg_71"/>
</linearGradient>
<linearGradient id="svg_64">
<stop offset="0" style="stop-color:#754a3d" id="svg_80"/>
<stop offset="1" style="stop-color:#7f352a" id="svg_79"/>
</linearGradient>
<symbol width="744.1" height="744.1" xmlns:xlink="http://www.w3.org/1999/xlink" id="svg_83">
<path style="stroke:#000;fill-rule:evenodd;fill-opacity:.092;stroke-width:0" id="svg_61" d="m 345.8169,465.4994 c 11.8721,14.5463 153.062,121.658 153.062,121.658 -0.320099,19.1295 1.89389,23.041 9.08151,32.4374 18.6585,18.2932 60.1742,50.2332 62.2577,44.0638 0.643188,-11.1182 -6.86414,-22.8905 -6.36395,-36.3169 6.12024,5.52191 11.8118,4.11908 17.7178,6.17853 l -16.1243,-17.5649 33.5114,-3.8071 -59.9813,-29.1931 -28.7949,-10.0912 -153.3156,-119.2045 -11.0509,11.8396 z "/>
<path style="fill:#00002f;fill-rule:evenodd;fill-opacity:.2" id="svg_60" d="m 568.4787,527.027 c 0,-111.662 -86.3539,-202.182 -192.877,-202.182 -106.523,0 -192.877,90.5201 -192.877,202.182 0,111.662 86.3538,202.182 192.877,202.182 106.523,0 192.877,-90.5201 192.877,-202.182 z " transform="matrix(1.02092,0,0,1.02092,-43.41553,-86.41116)"/>
<g id="svg_51">
<path style="fill:url(#svg_59);fill-rule:evenodd" id="svg_58" d="m 568.4787,527.027 c 0,-111.662 -86.3539,-202.182 -192.877,-202.182 -106.523,0 -192.877,90.5201 -192.877,202.182 0,111.662 86.3538,202.182 192.877,202.182 106.523,0 192.877,-90.5201 192.877,-202.182 z " transform="matrix(1.02092,0,0,1.02092,-59.25522,-107.7642)"/>
<path style="fill:#f20000;fill-rule:evenodd" id="svg_57" d="m 568.4787,527.027 c 0,-111.662 -86.3539,-202.182 -192.877,-202.182 -106.523,0 -192.877,90.5201 -192.877,202.182 0,111.662 86.3538,202.182 192.877,202.182 106.523,0 192.877,-90.5201 192.877,-202.182 z " transform="matrix(0.95614,0,0,0.95614,-34.9237,-73.62338)"/>
<path style="fill:#fff;fill-rule:evenodd" id="svg_56" d="m 568.4787,527.027 c 0,-111.662 -86.3539,-202.182 -192.877,-202.182 -106.523,0 -192.877,90.5201 -192.877,202.182 0,111.662 86.3538,202.182 192.877,202.182 106.523,0 192.877,-90.5201 192.877,-202.182 z " transform="matrix(0.850878,0,0,0.850878,4.612896,-18.14746)"/>
<path style="fill:#f20000;fill-rule:evenodd" id="svg_55" d="m 568.4787,527.027 c 0,-111.662 -86.3539,-202.182 -192.877,-202.182 -106.523,0 -192.877,90.5201 -192.877,202.182 0,111.662 86.3538,202.182 192.877,202.182 106.523,0 192.877,-90.5201 192.877,-202.182 z " transform="matrix(0.68421,0,0,0.68421,67.21373,69.69113)"/>
<path style="fill:#fff;fill-rule:evenodd" id="svg_54" d="m 568.4787,527.027 c 0,-111.662 -86.3539,-202.182 -192.877,-202.182 -106.523,0 -192.877,90.5201 -192.877,202.182 0,111.662 86.3538,202.182 192.877,202.182 106.523,0 192.877,-90.5201 192.877,-202.182 z " transform="matrix(0.555404,0,0,0.555404,115.5935,137.5753)"/>
<path style="fill:#f20000;fill-rule:evenodd" id="svg_53" d="m 568.4787,527.027 c 0,-111.662 -86.3539,-202.182 -192.877,-202.182 -106.523,0 -192.877,90.5201 -192.877,202.182 0,111.662 86.3538,202.182 192.877,202.182 106.523,0 192.877,-90.5201 192.877,-202.182 z " transform="matrix(0.364035,0,0,0.364035,187.4721,238.432)"/>
<path style="fill:#fff;fill-rule:evenodd" id="svg_52" d="m 568.4787,527.027 c 0,-111.662 -86.3539,-202.182 -192.877,-202.182 -106.523,0 -192.877,90.5201 -192.877,202.182 0,111.662 86.3538,202.182 192.877,202.182 106.523,0 192.877,-90.5201 192.877,-202.182 z " transform="matrix(0.224749,0,0,0.224749,239.7882,311.8394)"/>
</g>
<g id="svg_42" transform="matrix(0.998091,-6.176468e-2,6.176468e-2,0.998091,129.6922,-266.8550)">
<rect width="14.152571" x="-362.14899" y="644.02106" height="284.67593" style="fill:url(#svg_50);fill-rule:evenodd" id="svg_49" transform="matrix(0.485756,-0.874095,0.748599,0.663023,-147.6958,-18.38374)"/>
<path style="fill:#808080;fill-rule:evenodd" id="svg_48" d="m 235.2136,739.7578 l 20.8142,48.6904 .1239,-27.7522 30.065,2.1886 -51.0031,-23.1268 z " transform="matrix(0.997319,-7.317751e-2,7.317751e-2,0.997319,-147.6958,-18.38374)"/>
<path style="fill:url(#svg_44);fill-rule:evenodd" id="svg_47" d="m 407.033,904.3502 l 50.301,52.0354 36.4249,6.9381 -45.0974,-45.0974 -41.6285,-13.8761 z " transform="matrix(0.997319,-7.317751e-2,7.317751e-2,0.997319,-147.6958,-18.38374)"/>
<path style="fill:url(#svg_46);fill-rule:evenodd" id="svg_45" d="m 398.1789,912.7556 l 50.2404,52.094 5.6571,36.6454 -43.489,-46.6501 -12.4085,-42.0893 z " transform="matrix(0.997319,-7.317751e-2,7.317751e-2,0.997319,-147.6958,-18.38374)"/>
<path style="fill:url(#svg_44);fill-rule:evenodd" id="svg_43" d="m 401.465,907.1572 l 47.6082,44.3414 29.4397,36.7698 -42.4287,-39.9897 -34.6192,-41.1214 z " transform="matrix(0.997319,-7.317751e-2,7.317751e-2,0.997319,-147.6958,-18.38374)"/>
</g>
<path style="fill:url(#svg_41);stroke-width:0" id="svg_40" d="m 193.1439,540.5039 c 113.901,37.0114 141.478,-65.4162 132.305,-115.013 -9.17358,-49.5909 40.2325,-128.98 132.301,-115.009 -63.4168,-72.9464 -174.363,-80.7121 -247.313,-17.2952 -72.9504,63.4118 -80.707,174.36 -17.2925,247.31 l -.0006,.0066 z "/>
</symbol>
</defs>
<g>
<g style="stroke-linecap:round;stroke-width:0">
<path style="fill:#7f7f7f;filter:url(#svg_13_blur);stroke:#16150e" id="svg_14" d="m 496.7002,188.9149 c -18.3817,0 -33.2877,14.9921 -33.2877,33.4874 0,14.3854 9.0174,26.649 21.6726,31.3904 v 6.60226 c -30.1783,2.35657 -43.3723,14.386 -45.2669,35.7858 l -7.0436,79.5565 c 7.34833,11.7733 14.6967,5.6023 22.045,0 l 7.0436,-70.949 c 0.316956,-3.19293 1.4339,-6.17645 3.87732,-8.61676 l -5.689,91.3104 c -0.197327,3.16742 1.22082,6.12463 3.33032,8.61932 -0.366272,1.96674 -0.458618,4.12598 -0.573486,6.38824 l -5.0426,99.2938 c -0.539063,10.6147 3.86691,19.1906 8.67459,19.1906 h 11.1581 c 4.80768,0 8.52655,-8.56122 8.67462,-19.1906 l 1.3669,-98.0967 h 17.4867 c 0,0.004028 0,0.007019 0,0.010742 l 1.2217,99.4728 c 0.130615,10.6295 3.867,19.1906 8.67468,19.1906 h 11.1581 c 4.80768,0 9.19727,-8.57526 8.67468,-19.1906 l -4.8974,-99.4727 c -0.147644,-2.99829 -0.354248,-5.80811 -0.975952,-8.23846 1.79096,-2.35352 2.99713,-5.07752 2.8172,-7.97711 l -5.6891,-91.6675 c -0.047974,-0.773132 -0.088257,-1.5321 -0.254028,-2.271 4.43506,2.75641 6.7456,6.7944 7.22144,11.2449 l 7.5854,70.949 c 9.30182,8.78412 15.7565,6.78967 20.9445,0 l -7.5854,-79.5565 c -2.08331,-21.8494 -15.7592,-33.9316 -47.265,-35.9139 v -5.93381 c 13.4649,-4.29028 23.2219,-16.9631 23.2219,-31.9307 0,-18.4953 -14.8976,-33.4874 -33.2793,-33.4874 v -3.1e-05 z "/>
<path style="fill:#bfbfbf;stroke:#bfbfbf" id="path3873" d="m 496.7002,188.9149 c -18.3817,0 -33.2877,14.9921 -33.2877,33.4874 0,14.3853 9.0174,26.649 21.6726,31.3904 v 6.60223 c -30.1783,2.35657 -43.3723,14.386 -45.2669,35.7858 l -7.0436,79.5566 c 7.34833,11.7733 14.6967,5.6023 22.045,0 l 7.0437,-70.949 c 0.316956,-3.19293 1.43384,-6.17645 3.87732,-8.61679 l -5.6891,91.3105 c -0.197327,3.16742 1.22082,6.12457 3.33032,8.61926 -0.366211,1.9668 -0.458618,4.12604 -0.573486,6.38831 l -5.0426,99.2938 c -0.539063,10.6147 3.86697,19.1906 8.67459,19.1906 h 11.1581 c 4.80768,0 8.52655,-8.56122 8.67462,-19.1906 l 1.3669,-98.0967 h 17.4867 c 0,0.004028 0,0.007019 0,0.010681 l 1.2217,99.4728 c 0.130615,10.6295 3.867,19.1906 8.67468,19.1906 h 11.1581 c 4.80768,0 9.19727,-8.57526 8.67468,-19.1906 l -4.8974,-99.4728 c -0.147644,-2.99829 -0.354248,-5.80804 -0.975952,-8.2384 1.79096,-2.35352 2.99713,-5.07752 2.8172,-7.97711 l -5.6891,-91.6675 c -0.047974,-0.773163 -0.088257,-1.5321 -0.254028,-2.271 4.43506,2.75641 6.7456,6.79437 7.22144,11.2448 l 7.5854,70.9489 c 9.30182,8.78418 15.7565,6.78973 20.9445,0 l -7.5854,-79.5565 c -2.08331,-21.8495 -15.7592,-33.9316 -47.265,-35.9139 v -5.93378 c 13.4649,-4.29028 23.2219,-16.9631 23.2219,-31.9307 0,-18.4953 -14.8976,-33.4874 -33.2793,-33.4874 z "/>
<path style="fill:#7f7f7f;filter:url(#svg_13_blur);stroke:#16150e" id="svg_1" d="m 403.414,188.9149 c -18.381,0 -33.287,14.992 -33.287,33.487 0,14.386 9.01697,26.649 21.672,31.391 v 6.60199 c -30.178,2.35703 -43.372,14.386 -45.267,35.786 l -7.043,79.556 c 7.34799,11.774 14.697,5.60303 22.045,0 l 7.044,-70.949 c 0.315979,-3.19299 1.43298,-6.176 3.87701,-8.616 l -5.689,91.31 c -0.197998,3.16699 1.22101,6.125 3.33002,8.61902 -0.366028,1.96698 -0.458008,4.12598 -0.572998,6.38898 l -5.043,99.293 c -0.539001,10.615 3.867,19.191 8.67505,19.191 h 11.158 c 4.80701,0 8.526,-8.56103 8.67401,-19.191 l 1.367,-98.096 h 17.487 c 0,0.003967 0,0.006958 0,0.01001 l 1.222,99.473 c 0.130005,10.63 3.867,19.1911 8.67401,19.1911 h 11.158 c 4.80798,0 9.198,-8.57501 8.67499,-19.1911 l -4.897,-99.473 c -0.147949,-2.99805 -0.35498,-5.80804 -0.975952,-8.23804 1.79095,-2.354 2.99695,-5.078 2.81696,-7.97699 l -5.689,-91.668 c -0.048035,-0.77301 -0.088013,-1.53198 -0.254028,-2.271 4.435,2.75699 6.745,6.79501 7.22101,11.245 l 7.586,70.949 c 9.302,8.784 15.756,6.78998 20.944,0 l -7.585,-79.556 c -2.08301,-21.85 -15.759,-33.932 -47.265,-35.914 v -5.93399 c 13.465,-4.29001 23.222,-16.963 23.222,-31.931 0,-18.495 -14.8979,-33.487 -33.28,-33.487 l 0,0 z "/>
<path style="fill:#bfbfbf;stroke:#bfbfbf" id="svg_2" d="m 403.414,188.9149 c -18.381,0 -33.287,14.992 -33.287,33.487 0,14.386 9.01697,26.649 21.672,31.391 v 6.60199 c -30.178,2.35602 -43.372,14.386 -45.267,35.786 l -7.043,79.556 c 7.34799,11.773 14.697,5.60303 22.045,0 l 7.044,-70.949 c 0.317017,-3.19299 1.43298,-6.176 3.87701,-8.616 l -5.689,91.31 c -0.197998,3.16699 1.22101,6.125 3.33002,8.61902 -0.366028,1.96698 -0.458008,4.12598 -0.572998,6.38898 l -5.043,99.293 c -0.539001,10.615 3.867,19.191 8.67505,19.191 h 11.158 c 4.80701,0 8.526,-8.56103 8.67401,-19.191 l 1.367,-98.096 h 17.487 c 0,0.003967 0,0.006958 0,0.01001 l 1.222,99.473 c 0.130005,10.63 3.867,19.1911 8.67401,19.1911 h 11.158 c 4.80798,0 9.198,-8.57501 8.67499,-19.1911 l -4.897,-99.473 c -0.147949,-2.99805 -0.35498,-5.80804 -0.975952,-8.23804 1.79095,-2.354 2.99695,-5.078 2.81696,-7.97699 l -5.689,-91.668 c -0.048035,-0.77301 -0.088013,-1.53198 -0.254028,-2.271 4.435,2.75699 6.745,6.79501 7.22101,11.245 l 7.586,70.949 c 9.302,8.784 15.756,6.78998 20.944,0 l -7.585,-79.556 c -2.08301,-21.85 -15.759,-33.932 -47.265,-35.914 v -5.93399 c 13.465,-4.29001 23.222,-16.963 23.222,-31.931 0,-18.495 -14.8979,-33.487 -33.28,-33.487 z "/>
<path style="fill:#7f7f7f;filter:url(#svg_13_blur);stroke:#16150e" id="svg_3" d="m 315.4145,188.9149 c -18.3817,0 -33.2877,14.9921 -33.2877,33.4874 0,14.3854 9.0174,26.649 21.6726,31.3905 v 6.60225 c -30.1783,2.35657 -43.3723,14.3859 -45.267,35.7858 l -7.0436,79.5566 c 7.34833,11.7733 14.6967,5.60233 22.045,0 l 7.0436,-70.949 c 0.316956,-3.19287 1.4339,-6.17645 3.87732,-8.61673 l -5.689,91.3104 c -0.197327,3.16751 1.22082,6.12463 3.33032,8.61942 -0.366272,1.96674 -0.458618,4.12595 -0.573486,6.38815 l -5.0426,99.2938 c -0.539063,10.6147 3.86694,19.1906 8.67462,19.1906 h 11.1581 c 4.80768,0 8.52655,-8.56116 8.67462,-19.1906 l 1.3669,-98.0967 h 17.4867 c 0,0.004059 0,0.00705 0,0.010803 l 1.2217,99.4727 c 0.130615,10.6295 3.867,19.1905 8.67468,19.1905 h 11.1581 c 4.80768,0 9.19727,-8.5752 8.67468,-19.1905 l -4.8974,-99.4727 c -0.147644,-2.99832 -0.354248,-5.80814 -0.975952,-8.23852 1.79095,-2.35348 2.99713,-5.07748 2.8172,-7.97714 l -5.6891,-91.6675 c -0.047974,-0.773132 -0.088257,-1.5321 -0.254028,-2.271 4.43506,2.75641 6.74561,6.79437 7.22144,11.2448 l 7.5854,70.949 c 9.30182,8.78403 15.7565,6.78964 20.9445,0 l -7.5854,-79.5565 c -2.08331,-21.8494 -15.7592,-33.9316 -47.265,-35.9139 v -5.93382 c 13.4649,-4.2903 23.2219,-16.9632 23.2219,-31.9307 0,-18.4953 -14.8976,-33.4874 -33.2793,-33.4874 v -1.5e-05 z "/>
<path style="fill:#bfbfbf;stroke:#bfbfbf" id="svg_4" d="m 315.4145,188.9149 c -18.3817,0 -33.2877,14.9921 -33.2877,33.4874 0,14.3853 9.0174,26.649 21.6726,31.3905 v 6.60225 c -30.1783,2.35657 -43.3723,14.3859 -45.267,35.7858 l -7.0436,79.5566 c 7.34833,11.7732 14.6967,5.60233 22.045,0 l 7.0437,-70.949 c 0.316956,-3.19287 1.43384,-6.17645 3.87732,-8.61676 l -5.6891,91.3104 c -0.197327,3.16751 1.22082,6.12463 3.33032,8.61926 -0.366211,1.96689 -0.458618,4.1261 -0.573486,6.38831 l -5.0426,99.2938 c -0.539063,10.6147 3.867,19.1906 8.67462,19.1906 h 11.1581 c 4.80768,0 8.52655,-8.56116 8.67462,-19.1906 l 1.3669,-98.0967 h 17.4867 c 0,0.004059 0,0.00705 0,0.010742 l 1.2217,99.4728 c 0.130615,10.6295 3.867,19.1905 8.67468,19.1905 h 11.1581 c 4.80768,0 9.19727,-8.5752 8.67468,-19.1905 l -4.8974,-99.4727 c -0.147644,-2.99829 -0.354248,-5.80807 -0.975952,-8.23846 1.79095,-2.35348 2.99713,-5.07748 2.8172,-7.97714 l -5.6891,-91.6675 c -0.047974,-0.773193 -0.088257,-1.5321 -0.254028,-2.271 4.43506,2.75641 6.74561,6.79437 7.22144,11.2448 l 7.5854,70.949 c 9.30182,8.78409 15.7565,6.7897 20.9445,0 l -7.5854,-79.5565 c -2.08331,-21.8495 -15.7592,-33.9316 -47.265,-35.9139 v -5.93379 c 13.4649,-4.2903 23.2219,-16.9632 23.2219,-31.9307 0,-18.4953 -14.8976,-33.4874 -33.2793,-33.4874 z "/>
<g style="fill:#7f7f7f">
<path style="filter:url(#svg_13_blur);stroke:#16150e" id="svg_5" d="m 351.4146,216.3859 c -18.3817,0 -33.2877,14.9921 -33.2877,33.4874 0,14.3854 9.01727,26.649 21.6725,31.3904 v 6.6023 c -30.1782,2.35657 -43.3722,14.3859 -45.2669,35.7858 l -7.0436,79.5565 c 7.34833,11.7733 14.6967,5.6023 22.0451,0 l 7.0436,-70.949 c 0.316956,-3.19287 1.4339,-6.17645 3.87732,-8.61676 l -5.6891,91.3105 c -0.197266,3.16742 1.22082,6.12457 3.33038,8.61926 -0.366333,1.9668 -0.458618,4.12604 -0.573547,6.38831 l -5.0425,99.2938 c -0.539063,10.6147 3.86694,19.1906 8.67456,19.1906 h 11.1581 c 4.80774,0 8.52661,-8.5611 8.67468,-19.1906 l 1.3669,-98.0968 h 17.4867 c 0,0.004028 -6.1e-05,0.00708 0,0.010742 l 1.2217,99.4728 c 0.130554,10.6295 3.86694,19.1907 8.67462,19.1907 h 11.1581 c 4.80768,0 9.19733,-8.5752 8.67468,-19.1907 l -4.8974,-99.4727 c -0.147644,-2.99829 -0.354187,-5.80804 -0.975952,-8.23846 1.79095,-2.35352 2.99713,-5.07752 2.8172,-7.97705 l -5.6891,-91.6675 c -0.047913,-0.773132 -0.088196,-1.5321 -0.253967,-2.271 4.43506,2.75641 6.74554,6.79437 7.22138,11.2448 l 7.5854,70.949 c 9.30182,8.78418 15.7565,6.78967 20.9445,0 l -7.5854,-79.5565 c -2.08331,-21.8494 -15.7592,-33.9316 -47.2649,-35.9139 v -5.93378 c 13.4649,-4.29034 23.2219,-16.9631 23.2219,-31.9307 0,-18.4952 -14.8976,-33.4874 -33.2792,-33.4874 h 6.1e-05 z "/>
<path style="stroke:#7f7f7f" id="svg_6" d="m 349.4145,216.3859 c -18.3817,0 -33.2877,14.9921 -33.2877,33.4873 0,14.3854 9.01733,26.649 21.6725,31.3903 v 6.60236 c -30.1783,2.35663 -43.3723,14.386 -45.2668,35.7858 l -7.0436,79.5565 c 7.34833,11.7733 14.6967,5.60242 22.045,0 l 7.0436,-70.9489 c 0.317017,-3.19293 1.43396,-6.17645 3.87738,-8.61676 l -5.6891,91.3105 c -0.197327,3.16742 1.22082,6.12457 3.33032,8.61926 -0.366211,1.96674 -0.458557,4.12604 -0.573486,6.38824 l -5.0426,99.2938 c -0.539063,10.6147 3.86694,19.1906 8.67468,19.1906 h 11.158 c 4.80774,0 8.52649,-8.56116 8.67468,-19.1906 l 1.3669,-98.0967 h 17.4868 c 0,0.003967 -0.000122,0.007019 0,0.010681 l 1.2216,99.4728 c 0.130615,10.6296 3.867,19.1907 8.67474,19.1907 h 11.1581 c 4.80768,0 9.19727,-8.5752 8.67456,-19.1907 l -4.8973,-99.4727 c -0.147644,-2.99829 -0.354187,-5.80811 -0.975952,-8.23834 1.79095,-2.35358 2.99713,-5.07758 2.8172,-7.97723 l -5.6891,-91.6675 c -0.047852,-0.773193 -0.088135,-1.5321 -0.253967,-2.271 4.43518,2.75641 6.74561,6.79431 7.22144,11.2449 l 7.5854,70.9489 c 9.30176,8.78418 15.7564,6.7898 20.9445,0 l -7.5854,-79.5565 c -2.08325,-21.8495 -15.7592,-33.9316 -47.2648,-35.9139 v -5.93384 c 13.4649,-4.29034 23.2219,-16.9631 23.2219,-31.9307 0,-18.4952 -14.8976,-33.4873 -33.2792,-33.4873 h -6.1e-05 z "/>
<path style="filter:url(#svg_13_blur);stroke:#16150e" id="svg_7" d="m 456.4146,216.3859 c -18.3817,0 -33.2877,14.9921 -33.2877,33.4874 0,14.3853 9.01727,26.6489 21.6725,31.3903 v 6.6023 c -30.1782,2.35657 -43.3722,14.386 -45.2669,35.7858 l -7.0436,79.5566 c 7.34833,11.7732 14.6967,5.60217 22.0451,0 l 7.0436,-70.9491 c 0.316956,-3.19281 1.4339,-6.17639 3.87732,-8.6167 l -5.6891,91.3104 c -0.197266,3.16748 1.22082,6.12469 3.33038,8.61926 -0.366333,1.96692 -0.458618,4.12616 -0.573547,6.38837 l -5.0425,99.2938 c -0.539063,10.6147 3.86694,19.1906 8.67456,19.1906 h 11.1581 c 4.80774,0 8.52661,-8.56103 8.67468,-19.1906 l 1.3669,-98.0968 h 17.4867 c 0,0.00415 -6.1e-05,0.007141 0,0.010864 l 1.2217,99.4727 c 0.130554,10.6296 3.86694,19.1906 8.67462,19.1906 h 11.1581 c 4.80768,0 9.19733,-8.5752 8.67468,-19.1906 l -4.8974,-99.4727 c -0.147644,-2.99835 -0.354187,-5.80804 -0.975952,-8.23846 1.79095,-2.35364 2.99713,-5.07758 2.8172,-7.97717 l -5.6891,-91.6675 c -0.047913,-0.773132 -0.088196,-1.5321 -0.253967,-2.271 4.43506,2.75647 6.74554,6.79443 7.22138,11.2448 l 7.5854,70.949 c 9.30182,8.78406 15.7565,6.78961 20.9445,0 l -7.5854,-79.5565 c -2.08331,-21.8495 -15.7592,-33.9316 -47.2649,-35.9139 v -5.93378 c 13.4649,-4.29041 23.2219,-16.9632 23.2219,-31.9307 0,-18.4953 -14.8976,-33.4874 -33.2792,-33.4874 h 6.1e-05 z "/>
<path style="stroke:#7f7f7f" id="svg_8" d="m 454.4145,216.3859 c -18.3817,0 -33.2877,14.9921 -33.2877,33.4873 0,14.3854 9.01733,26.649 21.6725,31.3903 v 6.60242 c -30.1783,2.35657 -43.3723,14.3859 -45.2668,35.7858 l -7.0436,79.5565 c 7.34833,11.7733 14.6967,5.60242 22.045,0 l 7.0436,-70.949 c 0.317017,-3.19287 1.43396,-6.17645 3.87738,-8.6167 l -5.6891,91.3104 c -0.197327,3.16748 1.22082,6.12463 3.33032,8.61926 -0.366211,1.9668 -0.458557,4.1261 -0.573486,6.38831 l -5.0426,99.2938 c -0.539063,10.6147 3.86694,19.1906 8.67468,19.1906 h 11.158 c 4.80774,0 8.52649,-8.56116 8.67468,-19.1906 l 1.3669,-98.0967 h 17.4868 c 0,0.004028 -0.000122,0.00708 0,0.010742 l 1.2216,99.4727 c 0.130615,10.6297 3.867,19.1907 8.67474,19.1907 h 11.1581 c 4.80768,0 9.19727,-8.5752 8.67456,-19.1907 l -4.8973,-99.4726 c -0.147644,-2.99829 -0.354187,-5.80811 -0.975952,-8.23834 1.79095,-2.35358 2.99713,-5.07758 2.8172,-7.97723 l -5.6891,-91.6675 c -0.047852,-0.773193 -0.088135,-1.53217 -0.253967,-2.271 4.43518,2.75641 6.74561,6.79431 7.22144,11.2449 l 7.5854,70.9489 c 9.30176,8.78412 15.7564,6.7898 20.9445,0 l -7.5854,-79.5565 c -2.08325,-21.8496 -15.7592,-33.9316 -47.2648,-35.9139 v -5.93384 c 13.4649,-4.29034 23.2219,-16.9631 23.2219,-31.9307 0,-18.4952 -14.8976,-33.4873 -33.2792,-33.4873 h -6.1e-05 z "/>
</g>
<path style="fill:#007f3f;filter:url(#svg_13_blur);stroke:#16150e" id="svg_9" d="m 403.4146,232.9149 c -18.3817,0 -33.2877,14.9921 -33.2877,33.4874 0,14.3853 9.01727,26.6489 21.6725,31.3903 v 6.6023 c -30.1782,2.35651 -43.3722,14.386 -45.2668,35.7858 l -7.0436,79.5566 c 7.34833,11.7732 14.6967,5.60217 22.045,0 l 7.0437,-70.9491 c 0.316956,-3.19281 1.4339,-6.17639 3.87732,-8.6167 l -5.6891,91.3104 c -0.197235,3.16748 1.22082,6.12469 3.33041,8.61926 -0.366364,1.96692 -0.458618,4.12616 -0.573578,6.38837 l -5.0425,99.2938 c -0.539032,10.6147 3.86694,19.1906 8.67456,19.1906 h 11.1581 c 4.80777,0 8.52661,-8.56103 8.67471,-19.1906 l 1.3669,-98.0968 h 17.4867 c 0,0.00415 -6.1e-05,0.007141 0,0.010864 l 1.2217,99.4727 c 0.130554,10.6296 3.86688,19.1907 8.67456,19.1907 h 11.1581 c 4.80768,0 9.19733,-8.5752 8.67468,-19.1907 l -4.8974,-99.4726 c -0.147644,-2.99835 -0.354187,-5.80804 -0.975952,-8.23846 1.79095,-2.35364 2.99713,-5.07758 2.8172,-7.97717 l -5.6891,-91.6675 c -0.047913,-0.773132 -0.088196,-1.5321 -0.253967,-2.271 4.43506,2.75647 6.74554,6.79443 7.22138,11.2448 l 7.5854,70.949 c 9.30182,8.78406 15.7565,6.78961 20.9445,0 l -7.5854,-79.5565 c -2.08331,-21.8495 -15.7592,-33.9316 -47.2649,-35.9139 v -5.93378 c 13.4649,-4.29041 23.2219,-16.9632 23.2219,-31.9307 0,-18.4953 -14.8976,-33.4874 -33.2792,-33.4874 h 6.1e-05 z "/>
<path style="fill:#007fff;stroke:#007f00" id="svg_10" d="m 403.4145,232.9149 c -18.3817,0 -33.2877,14.9921 -33.2877,33.4873 0,14.3854 9.01733,26.649 21.6725,31.3903 v 6.60242 c -30.1783,2.35651 -43.3723,14.3859 -45.2668,35.7858 l -7.0436,79.5565 c 7.34833,11.7733 14.6967,5.60242 22.045,0 l 7.0436,-70.949 c 0.317017,-3.19287 1.43396,-6.17645 3.87738,-8.6167 l -5.6891,91.3104 c -0.197327,3.16748 1.22082,6.12463 3.33032,8.61926 -0.366211,1.9668 -0.458557,4.1261 -0.573486,6.38831 l -5.0426,99.2937 c -0.539063,10.6147 3.86694,19.1907 8.67468,19.1907 h 11.158 c 4.80774,0 8.52649,-8.56116 8.67468,-19.1907 l 1.3669,-98.0967 h 17.4868 c 0,0.004028 -0.000122,0.00708 0,0.010742 l 1.2216,99.4728 c 0.130615,10.6296 3.867,19.1907 8.67474,19.1907 h 11.1581 c 4.80768,0 9.19727,-8.5752 8.67456,-19.1907 l -4.8973,-99.4727 c -0.147644,-2.99829 -0.354187,-5.80811 -0.975952,-8.23834 1.79095,-2.35358 2.99713,-5.07758 2.8172,-7.97723 l -5.6891,-91.6675 c -0.047852,-0.773193 -0.088135,-1.53217 -0.253967,-2.271 4.43518,2.75641 6.74561,6.79431 7.22144,11.2449 l 7.5854,70.9489 c 9.30176,8.78412 15.7564,6.7898 20.9445,0 l -7.5854,-79.5565 c -2.08325,-21.8496 -15.7592,-33.9316 -47.2648,-35.9139 v -5.93384 c 13.4649,-4.29034 23.2219,-16.9631 23.2219,-31.9307 0,-18.4952 -14.8976,-33.4873 -33.2792,-33.4873 h -6.1e-05 z "/>
</g>
<use x="251.680204" y="-1092.70898" xlink:href="#svg_83" id="svg_84" transform="rotate(104.59638977050781 -121.56179809570325,1560.2139892578127) matrix(0.2131199390842175,0,0,1.037704772870557,-55.169204163944215,-19.960906616458885) "/>
<use x="2503.698933" y="1608.999772" xlink:href="#svg_83" id="svg_85" transform="matrix(0.15775190672657508,0,0,0.16264110216757152,-44.65302751620675,30.849209270576726) "/>
</g>
</svg>
